<mxfile host="app.diagrams.net" modified="2024-01-15T15:03:58.816Z" agent="Mozilla/5.0 (Windows NT 10.0; Win64; x64) AppleWebKit/537.36 (KHTML, like Gecko) Chrome/120.0.0.0 Safari/537.36" etag="glH4OrwjRTTFsDeZYR4U" version="22.1.18" type="github">
  <diagram name="페이지-1" id="VV5tiFisKb5AAxLWa2az">
    <mxGraphModel dx="472" dy="736" grid="1" gridSize="10" guides="1" tooltips="1" connect="1" arrows="1" fold="1" page="1" pageScale="1" pageWidth="827" pageHeight="1169" math="0" shadow="0">
      <root>
        <mxCell id="0" />
        <mxCell id="1" parent="0" />
        <mxCell id="WaYLnoHR0wF8BJYVAtjm-1" value="Validation" style="rounded=1;whiteSpace=wrap;html=1;" vertex="1" parent="1">
          <mxGeometry x="100" y="200" width="110" height="40" as="geometry" />
        </mxCell>
        <mxCell id="WaYLnoHR0wF8BJYVAtjm-2" value="Create Tenant" style="rounded=1;whiteSpace=wrap;html=1;" vertex="1" parent="1">
          <mxGeometry x="100" y="320" width="110" height="40" as="geometry" />
        </mxCell>
        <mxCell id="WaYLnoHR0wF8BJYVAtjm-3" value="Create Billing" style="rounded=1;whiteSpace=wrap;html=1;" vertex="1" parent="1">
          <mxGeometry x="100" y="440" width="110" height="40" as="geometry" />
        </mxCell>
        <mxCell id="WaYLnoHR0wF8BJYVAtjm-4" value="Create Tag" style="rounded=1;whiteSpace=wrap;html=1;" vertex="1" parent="1">
          <mxGeometry x="100" y="560" width="110" height="40" as="geometry" />
        </mxCell>
        <mxCell id="WaYLnoHR0wF8BJYVAtjm-5" value="Return" style="rounded=1;whiteSpace=wrap;html=1;" vertex="1" parent="1">
          <mxGeometry x="100" y="680" width="110" height="40" as="geometry" />
        </mxCell>
        <mxCell id="WaYLnoHR0wF8BJYVAtjm-6" value="userValidationService" style="rounded=1;whiteSpace=wrap;html=1;" vertex="1" parent="1">
          <mxGeometry x="320" y="100" width="160" height="40" as="geometry" />
        </mxCell>
        <mxCell id="WaYLnoHR0wF8BJYVAtjm-7" value="tenantService.createTenant" style="rounded=1;whiteSpace=wrap;html=1;" vertex="1" parent="1">
          <mxGeometry x="70" y="100" width="180" height="40" as="geometry" />
        </mxCell>
        <mxCell id="WaYLnoHR0wF8BJYVAtjm-8" value="createTenantTaskService" style="rounded=1;whiteSpace=wrap;html=1;" vertex="1" parent="1">
          <mxGeometry x="550" y="100" width="160" height="40" as="geometry" />
        </mxCell>
      </root>
    </mxGraphModel>
  </diagram>
</mxfile>
